<svg xmlns="http://www.w3.org/2000/svg" viewBox="0 0 256 257">
  <defs>
    <linearGradient id="g" x1="0" x2="1" y1="1" y2="0">
      <stop stop-color="#41D1FF" />
      <stop offset="1" stop-color="#BD34FE" />
    </linearGradient>
  </defs>
  <path fill="url(#g)" d="M255.5 37.9L134.2 252.5c-2.9 5.1-10.4 5.1-13.4 0L0.5 37.9c-3.1-5.5 1-12.2 6.9-12.2h241.2c6 0 10 6.7 6.9 12.2z"/>
  <path fill="#fff" d="M190.1 0L86.4 0c-5.6 0-10 4.5-10 10v124.8c0 4.4 3.6 8 8 8h18.5c4.4 0 8-3.6 8-8V32.1h69.3v26.8c0 4.4 3.6 8 8 8h18.5c4.4 0 8-3.6 8-8V10c0-5.5-4.5-10-10-10z"/>
</svg>
